<?xml version="1.0" standalone="no"?>
<!DOCTYPE svg PUBLIC "-//W3C//DTD SVG 20010904//EN"
        "http://www.w3.org/TR/2001/REC-SVG-20010904/DTD/svg10.dtd">
<svg version="1.0" xmlns="http://www.w3.org/2000/svg"
     width="144.000000pt" height="144.000000pt" viewBox="0 0 144.000000 144.000000"
     preserveAspectRatio="xMidYMid meet">
    <metadata>
        Created by potrace 1.14, written by Peter Selinger 2001-2017
    </metadata>
    <g transform="translate(0.000000,144.000000) scale(0.100000,-0.100000)"
       fill="#000000" stroke="none">
        <path d="M97 1413 c-7 -15 80 -1184 89 -1192 5 -4 126 -51 270 -104 l261 -95
268 99 c147 54 269 100 270 101 2 2 19 239 39 528 20 289 39 558 43 598 l6 72
-621 0 c-341 0 -623 -3 -625 -7z m443 -81 c47 -34 62 -78 57 -168 -2 -58 -9
-91 -23 -115 l-20 -34 22 -33 c42 -61 44 -203 5 -280 -35 -68 -121 -90 -186
-48 -32 21 -55 77 -58 138 l-2 53 50 0 50 0 5 -53 c6 -55 24 -79 47 -60 18 14
18 191 0 206 -6 6 -24 13 -40 17 -24 6 -27 12 -27 49 0 39 3 43 33 51 28 9 33
15 41 58 4 26 4 68 -1 95 -6 37 -12 47 -28 47 -17 0 -21 -10 -29 -57 l-8 -58
-51 0 -50 0 6 66 c6 75 25 109 78 137 40 21 91 17 129 -11z m227 -177 c12
-104 22 -192 23 -195 1 -3 10 65 20 150 31 261 25 240 71 240 24 0 39 -5 40
-12 2 -68 47 -367 52 -348 3 14 14 99 24 190 l18 165 50 0 c39 0 50 -3 48 -15
-1 -8 -21 -152 -43 -320 -55 -414 -44 -370 -95 -370 l-42 0 -24 175 c-13 96
-26 175 -29 175 -3 0 -16 -79 -29 -175 l-24 -175 -42 0 c-40 0 -43 2 -49 33
-11 59 -86 632 -86 655 0 21 4 23 48 20 l47 -3 22 -190z m348 -580 c0 -6 -141
-11 -397 -13 -351 -2 -398 0 -398 13 0 13 47 15 398 13 256 -2 397 -7 397 -13z
m-706 -117 c23 -140 25 -168 8 -168 -9 0 -17 10 -19 22 -5 34 -38 37 -38 4 0
-23 -18 -35 -32 -21 -4 4 15 149 27 203 3 13 13 22 24 22 15 0 21 -12 30 -62z
m109 50 c18 -18 15 -68 -3 -68 -8 0 -15 9 -15 20 0 11 -4 20 -10 20 -6 0 -10
-32 -10 -75 0 -43 4 -75 10 -75 6 0 10 9 10 21 0 14 5 19 18 17 33 -7 8 -78
-29 -78 -32 0 -49 39 -49 115 0 48 5 78 16 93 17 24 43 29 62 10z m102 5 c0
-5 7 -48 15 -98 8 -49 15 -98 15 -107 0 -27 -27 -21 -34 7 -4 14 -13 25 -21
25 -9 0 -15 -10 -15 -25 0 -19 -5 -25 -21 -25 -15 0 -19 5 -16 18 3 9 10 55
17 102 6 47 13 91 15 98 5 13 45 17 45 5z m120 -13 c16 -16 20 -33 20 -95 0
-83 -18 -115 -64 -115 -19 0 -24 6 -30 38 -8 50 -8 177 1 185 13 14 54 6 73
-13z m118 -2 c3 -13 -3 -18 -22 -18 -21 0 -25 -4 -24 -24 1 -14 10 -27 20 -29
24 -7 23 -33 -2 -40 -14 -3 -20 -14 -20 -31 0 -21 5 -26 26 -26 19 0 25 -5 22
-17 -2 -13 -14 -19 -41 -21 l-37 -3 0 116 0 116 37 -3 c27 -2 39 -8 41 -20z
m66 -33 l9 -50 11 50 c9 40 15 51 34 53 22 3 22 2 22 -112 0 -109 -1 -116 -20
-116 -17 0 -20 7 -22 48 l-1 47 -6 -45 c-7 -56 -25 -59 -29 -5 -5 60 -23 69
-20 10 3 -40 0 -50 -14 -53 -16 -3 -18 7 -18 113 0 115 0 116 22 113 19 -2 25
-12 32 -53z m124 22 c4 -34 22 -36 22 -2 0 23 24 45 36 32 3 -2 -2 -32 -10
-65 -9 -33 -16 -83 -16 -111 0 -44 -3 -51 -20 -51 -17 0 -20 7 -20 53 0 28 -7
77 -15 107 -19 70 -19 72 3 68 10 -2 18 -14 20 -31z"/>
        <path d="M370 403 c0 -18 5 -33 10 -33 13 0 13 30 0 50 -7 11 -10 7 -10 -17z"/>
        <path d="M591 401 c-1 -24 2 -32 9 -25 7 7 7 19 1 35 -9 23 -10 22 -10 -10z"/>
        <path d="M700 405 c0 -43 4 -75 10 -75 6 0 10 32 10 75 0 43 -4 75 -10 75 -6
0 -10 -32 -10 -75z"/>
    </g>
</svg>
